# AST/ASF file generated using VICON BodyLanguage
# -----------------------------------------------
:version 1.10
:name VICON
:units
  mass 1.0
  length 0.45
  angle deg
:documentation
   .ast/.asf automatically generated from VICON data using
   VICON BodyBuilder and BodyLanguage model FoxedUp or BRILLIANT.MOD
:root
   order TX TY TZ RX RY RZ
   axis XYZ
   position 0 0 0  
   orientation 0 0 0 
:bonedata
  begin
     id 1 
     name lhipjoint
     direction 0.602128 -0.715006 0.355257 
     length 2.21237 
     axis 0 0 0  XYZ
  end
  begin
     id 2 
     name lfemur
     direction 0.34202 -0.939693 0  
     length 6.71649  
     axis 0 0 20  XYZ
    dof rx ry rz
    limits (-160.0 20.0)
           (-70.0 70.0)
           (-60.0 70.0)
  end
  begin
     id 3 
     name ltibia
     direction 0.34202 -0.939693 0   
     length 6.97123   
     axis 0 0 20   XYZ
    dof rx
    limits (-10.0 170.0)
  end
  begin
     id 4 
     name lfoot
     direction 0.0655697 -0.180151 0.981451   
     length 1.80924   
     axis -90 7.62852e-016 20   XYZ
    dof rx rz
    limits (-45.0 90.0)
           (-70.0 20.0)
  end
  begin
     id 5 
     name ltoes
     direction 1.53545e-011 -4.21827e-011 1   
     length 0.916331   
     axis -90 7.62852e-016 20   XYZ
    dof rx
    limits (-90.0 20.0)
  end
  begin
     id 6 
     name rhipjoint
     direction -0.625414 -0.698792 0.347201   
     length 2.2637  
     axis 0 0 0  XYZ 
  end
  begin
     id 7 
     name rfemur
     direction -0.34202 -0.939693 0   
     length 7.07595   
     axis 0 0 -20   XYZ
    dof rx ry rz
    limits (-160.0 20.0)
           (-70.0 70.0)
           (-70.0 60.0)
  end
  begin
     id 8 
     name rtibia
     direction -0.34202 -0.939693 0   
     length 7.22924   
     axis 0 0 -20   XYZ
    dof rx
    limits (-10.0 170.0)
 end
 begin
     id 9 
     name rfoot
     direction -0.0766747 -0.210662 0.974547   
     length 1.98482  
     axis -90 -7.62852e-016 -20   XYZ
    dof rx rz
    limits (-45.0 90.0)
           (-20.0 70.0)
  end
  begin
     id 10 
     name rtoes
     direction -1.53532e-011 -4.21867e-011 1   
     length 0.999842   
     axis -90 -7.62852e-016 -20   XYZ
    dof rx
    limits (-90.0 20.0)
  end
  begin
     id 11 
     name lowerback
     direction -0.0224668 0.997354 -0.0691422   
     length 2.09945   
     axis 0 0 0   XYZ
    dof rx ry rz
    limits (-20.0 45.0)
           (-30.0 30.0)
           (-30.0 30.0)
  end
  begin
     id 12 
     name upperback
     direction 0.0134698 0.998451 -0.0539888   
     length 2.09758   
     axis 0 0 0   XYZ
    dof rx ry rz
    limits (-20.0 45.0)
           (-30.0 30.0)
           (-30.0 30.0)
  end
  begin
     id 13 
     name thorax
     direction 0.0241905 0.99948 -0.0213333   
     length 2.10428   
     axis 0 0 0   XYZ
    dof rx ry rz
    limits (-20.0 45.0)
           (-30.0 30.0)
           (-30.0 30.0)
  end
  begin
     id 14 
     name lowerneck
     direction -0.00866847 0.995978 0.0891737   
     length 1.3959   
     axis 0 0 0   XYZ
    dof rx ry rz
    limits (-20.0 45.0)
           (-30.0 30.0)
           (-30.0 30.0)
  end
  begin
     id 15 
     name upperneck
     direction 0.0680679 0.992203 0.104404   
     length 1.39452   
     axis 0 0 0   XYZ
    dof rx ry rz
    limits (-20.0 45.0)
           (-30.0 30.0)
           (-30.0 30.0)
  end
  begin
     id 16
     name head
     direction 0.0242216 0.999358 0.0264054  
     length 1.40433  
     axis 0 0 0   XYZ
    dof rx ry rz
    limits (-20.0 45.0)
           (-30.0 30.0)
           (-30.0 30.0)
  end
  begin
     id 17 
     name lclavicle
     direction 0.929368 0.362991 -0.0671771  
     length 3.04887  
     axis 0 0 0   XYZ
    dof ry rz
    limits (-20.0 10.0)
           (0.0 20.0)
  end
  begin
     id 18 
     name lhumerus
     direction 1 -4.48967e-011 -7.13741e-028   
     length 4.77195   
     axis -180 -30 -90   XYZ
    dof rx ry rz
    limits (-60.0 90.0)
           (-90.0 90.0)
           (-90.0 90.0)
  end
  begin
     id 19
     name lradius
     direction 1 -4.48977e-011 3.60404e-027   
     length 2.98444   
     axis -180 -30 -90   XYZ
    dof rx
    limits (-10.0 170.0)
  end
  begin
     id 20
     name lwrist
     direction 1 -4.48997e-011 7.54877e-027   
     length 1.49222   
     axis -7.18178e-015 90 90   XYZ
    dof ry
    limits (-180.0 0.0)
 end
  begin
     id 21 
     name lhand
     direction 1 -4.489e-011 1.51105e-026   
     length 0.992285   
     axis -9.63605e-015 90 90   XYZ
    dof rx rz
    limits (-90.0 90.0)
           (-45.0 45.0)
  end
  begin
     id 22 
     name lfingers
     direction 1 -4.48998e-011 3.01948e-026   
     length 0.800006   
     axis -1.92718e-014 90 90   XYZ
    dof rx
    limits (0.0 90.0)
  end
  begin
     id 23
     name lthumb
     direction 0.707107 -6.34881e-011 0.707107   
     length 1.14865   
     axis -90 45 -3.53137e-014   XYZ
    dof rx rz
    limits (-45.0 45.0)
           (-45.0 45.0)
  end
  begin
     id 24 
     name rclavicle
     direction -0.945672 0.324529 0.0196374   
     length 3.4236  
     axis 0 0 0   XYZ 
    dof ry rz
    limits (-10.0 20.0)
           (-20.0 0.0)
  end
  begin
     id 25 
     name rhumerus
     direction -1 -4.4896e-011 1.02757e-029  
     length 4.62052   
     axis -180 30 90   XYZ
    dof rx ry rz
    limits (-90.0 60.0)
           (-90.0 90.0)
           (-90.0 90.0)
  end
  begin
     id 26 
     name rradius
     direction -1 -4.48982e-011 3.85962e-027   
     length 2.95332   
     axis -180 30 90   XYZ
    dof rx
    limits (-10.0 170.0)
  end
  begin
     id 27 
     name rwrist
     direction -1 -4.48961e-011 7.55118e-027   
     length 1.47666   
     axis -7.18178e-015 -90 -90   XYZ
    dof ry
    limits (-180.0 0.0)
  end
  begin
     id 28
     name rhand
     direction -1 -4.48984e-011 1.50994e-026   
     length 0.990956   
     axis -9.63605e-015 -90 -90   XYZ
    dof rx rz
    limits (-90.0 90.0)
           (-45.0 45.0)
  end
  begin
     id 29
     name rfingers
     direction -1 -4.4892e-011 3.02158e-026   
     length 0.798934   
     axis -1.92718e-014 -90 -90   XYZ
    dof rx
    limits (0.0 90.0)
  end
  begin
     id 30
     name rthumb
     direction -0.707107 -6.34916e-011 0.707107   
     length 1.14711   
     axis -90 -45 3.53137e-014   XYZ
    dof rx rz
    limits (-45.0 45.0)
           (-45.0 45.0)
  end
:hierarchy
  begin
    root lhipjoint rhipjoint lowerback
    lhipjoint lfemur
    lfemur ltibia
    ltibia lfoot
    lfoot ltoes
    rhipjoint rfemur
    rfemur rtibia
    rtibia rfoot
    rfoot rtoes
    lowerback upperback
    upperback thorax
    thorax lowerneck lclavicle rclavicle
    lowerneck upperneck
    upperneck head
    lclavicle lhumerus
    lhumerus lradius
    lradius lwrist
    lwrist lhand lthumb
    lhand lfingers
    rclavicle rhumerus
    rhumerus rradius
    rradius rwrist
    rwrist rhand rthumb
    rhand rfingers
  end

#!OML:ASF H:\ManfredObstacles\Project 1\Capture day 1\Session 1\Male.ASF
:FULLY-SPECIFIED
:DEGREES
305
root 6.55955 16.367 5.27479 -190.508 -85.4009 -160.894
lowerback -9.81813 0.060303 -0.973189
upperback 1.48054 0.240966 -0.642092
thorax 7.07594 0.0908918 -0.0893394
lowerneck -0.335054 0.363674 -5.13406
upperneck 0.938056 0.445087 6.44276
head 0.32667 0.2237 2.95277
rclavicle -4.91992e-015 1.47101e-014
rhumerus -31.632 -18.7076 -77.0761
rradius 28.5696
rwrist 28.5386
rhand 1.35994 -6.30213
rfingers 7.12502
rthumb 26.8923 -34.4092
lclavicle -4.91992e-015 1.47101e-014
lhumerus -35.4699 29.8908 68.5687
lradius 14.3644
lwrist -44.6387
lhand -8.02747 8.88864
lfingers 7.12502
lthumb 17.8824 38.0865
rfemur -6.09953 -5.60692 23.8676
rtibia 21.5919
rfoot -23.2202 12.4596
rtoes 10.6241
lfemur -30.2231 2.73676 -22.7529
ltibia 18.259
lfoot 5.85072 -6.87047
ltoes 8.67958
306
root 6.36416 16.3456 5.26266 -190.867 -85.4284 -160.555
lowerback -10.0941 0.0823226 -1.07651
upperback 1.43176 0.2846 -0.61541
thorax 7.18105 0.106913 0.00430547
lowerneck -0.389909 0.304945 -5.28499
upperneck 1.12248 0.360771 6.55411
head 0.399913 0.182739 3.02013
rclavicle -2.98177e-016 5.1684e-015
rhumerus -31.819 -18.7631 -77.0473
rradius 28.6904
rwrist 28.4472
rhand 1.43841 -6.26525
rfingers 7.12502
rthumb 26.9674 -34.3607
lclavicle -2.98177e-016 5.1684e-015
lhumerus -36.2179 30.9879 67.5608
lradius 13.9997
lwrist -45.9478
lhand -8.18069 8.94254
lfingers 7.12502
lthumb 17.735 38.1538
rfemur -5.089 -4.9598 23.8937
rtibia 21.1676
rfoot -23.5442 11.4704
rtoes 8.42855
lfemur -29.674 2.55455 -22.7663
ltibia 18.6454
lfoot 6.61471 -7.52967
ltoes 9.51613
307
root 6.16676 16.3398 5.25031 -191.379 -85.3922 -160.123
lowerback -10.2996 0.14505 -1.17977
upperback 1.357 0.383767 -0.625371
thorax 7.21758 0.151013 0.0685995
lowerneck -0.267126 0.173853 -5.33126
upperneck 1.19635 0.174278 6.70146
head 0.414084 0.0875843 3.07858
rclavicle -1.2424e-015 1.23246e-014
rhumerus -32.2507 -18.6966 -77.0742
rradius 28.8727
rwrist 28.0827
rhand 1.48802 -6.29552
rfingers 7.12502
rthumb 27.0149 -34.3836
lclavicle -1.2424e-015 1.23246e-014
lhumerus -37.0653 32.2376 66.2471
lradius 13.6377
lwrist -47.5452
lhand -8.26734 8.90234
lfingers 7.12502
lthumb 17.6516 38.1211
rfemur -4.03908 -4.56654 23.9299
rtibia 20.7942
rfoot -23.6483 10.6889
rtoes 5.9311
lfemur -29.2466 2.3582 -22.6889
ltibia 19.2586
lfoot 6.34215 -7.16354
ltoes 7.95859
308
root 5.96563 16.3467 5.24245 -192.197 -85.3354 -159.512
lowerback -10.4261 0.150521 -1.27381
upperback 1.34694 0.404022 -0.611187
thorax 7.27837 0.15633 0.140274
lowerneck -0.190481 0.0923656 -5.41067
upperneck 1.28011 0.0553422 6.86738
head 0.435464 0.0268539 3.15034
rclavicle 5.41688e-015 -5.1684e-015
rhumerus -32.6336 -18.4024 -77.1555
rradius 29.0012
rwrist 27.6958
rhand 1.66863 -6.33424
rfingers 7.12502
rthumb 27.1876 -34.3954
lclavicle 5.41688e-015 -5.1684e-015
lhumerus -38.1773 34.2582 64.3914
lradius 13.2161
lwrist -49.8662
lhand -8.60666 8.86043
lfingers 7.12502
lthumb 17.325 38.1082
rfemur -2.94343 -4.14827 23.956
rtibia 20.6407
rfoot -23.5994 10.0359
rtoes 3.97169
lfemur -28.8495 2.45838 -22.6092
ltibia 19.9241
lfoot 5.73015 -6.50677
ltoes 7.6632
309
root 5.76691 16.3426 5.23398 -188.063 -85.4354 -163.871
lowerback -10.6592 0.0517581 -1.80587
upperback 1.48077 0.356884 -0.731513
thorax 7.55391 0.110915 0.305771
lowerneck -0.424757 0.0902769 -5.48229
upperneck 1.39229 0.0546805 7.032
head 0.512812 0.0309109 3.22185
rclavicle -8.64713e-015 -5.1684e-015
rhumerus -32.6538 -18.5809 -77.2685
rradius 28.8283
rwrist 27.8929
rhand 1.80776 -6.29442
rfingers 7.12502
rthumb 27.3207 -34.3347
lclavicle -8.64713e-015 -5.1684e-015
lhumerus -39.0134 36.3284 62.6355
lradius 12.8099
lwrist -51.9646
lhand -8.71022 8.82664
lfingers 7.12502
lthumb 17.2254 38.0832
rfemur -2.06055 -3.54578 23.5378
rtibia 20.9184
rfoot -23.367 9.55371
rtoes 3.95609
lfemur -28.2465 3.34734 -23.3192
ltibia 20.5706
lfoot 5.30087 -7.65718
ltoes 3.37601
310
root 5.57634 16.3435 5.22663 -180.919 -85.6369 -171.303
lowerback -10.7849 -0.0472516 -2.51874
upperback 1.64883 0.344258 -0.993167
thorax 7.80595 0.0752323 0.428164
lowerneck -0.555416 0.0564723 -5.38602
upperneck 1.35337 0.0125655 7.14003
head 0.526395 0.0124208 3.2406
rclavicle 5.81445e-015 1.11319e-014
rhumerus -32.7158 -19.3457 -77.3469
rradius 28.4702
rwrist 28.3259
rhand 1.76492 -6.18232
rfingers 7.12502
rthumb 27.2797 -34.2291
lclavicle 5.81445e-015 1.11319e-014
lhumerus -39.6617 38.1998 60.9685
lradius 12.4751
lwrist -53.8569
lhand -8.6401 8.73132
lfingers 7.12502
lthumb 17.2928 37.982
rfemur -1.4672 -2.94361 22.8598
rtibia 21.8288
rfoot -22.9938 9.26064
rtoes 5.41045
lfemur -27.5057 4.10913 -24.1824
ltibia 21.1378
lfoot 4.89774 -8.96275
ltoes 5.02288
311
root 5.39394 16.3482 5.22255 -178.788 -85.8895 -173.619
lowerback -10.7871 -0.111885 -2.91037
upperback 1.65905 0.314316 -1.05225
thorax 7.81844 0.0436977 0.580798
lowerneck -0.456053 -0.0328103 -5.36537
upperneck 1.38089 -0.11429 7.19225
head 0.526503 -0.052614 3.2538
rclavicle 2.43511e-015 3.18055e-015
rhumerus -33.2487 -20.0804 -77.088
rradius 28.2354
rwrist 28.7238
rhand 1.7095 -6.08173
rfingers 7.12502
rthumb 27.2267 -34.1368
lclavicle 2.43511e-015 3.18055e-015
lhumerus -40.4836 39.7414 59.5032
lradius 12.2944
lwrist -55.5225
lhand -8.73355 8.75602
lfingers 7.12502
lthumb 17.2029 38.0145
rfemur -1.42093 -2.74592 22.6195
rtibia 23.512
rfoot -22.6268 8.91289
rtoes 4.70002
lfemur -26.8071 4.58504 -24.4652
ltibia 21.585
lfoot 4.35524 -9.97822
ltoes 6.47737
312
root 5.21326 16.3573 5.21634 -178.783 -86.1105 -173.561
lowerback -10.9973 -0.119273 -3.14077
upperback 1.56903 0.341893 -1.06728
thorax 7.84108 0.0470126 0.699865
lowerneck -0.321936 -0.201726 -5.4284
upperneck 1.50628 -0.355852 7.3535
head 0.560518 -0.175425 3.32055
rclavicle -1.58034e-014 -1.66979e-014
rhumerus -34.0217 -21.0233 -76.6311
rradius 28.0489
rwrist 29.3995
rhand 1.70489 -5.97639
rfingers 7.12502
rthumb 27.2223 -34.0321
lclavicle -1.58034e-014 -1.66979e-014
lhumerus -40.6402 40.1443 59.0833
lradius 12.2093
lwrist -55.883
lhand -8.77261 9.03858
lfingers 7.12502
lthumb 17.1653 38.3004
rfemur -2.01505 -2.89274 22.575
rtibia 25.8365
rfoot -22.1183 8.52484
rtoes 0.801063
lfemur -26.3328 5.20563 -24.5786
ltibia 21.9074
lfoot 3.88995 -11.1924
ltoes 6.06746
313
root 5.03269 16.3709 5.21059 -177.962 -86.1776 -174.253
lowerback -11.378 -0.112873 -3.34934
upperback 1.53512 0.398484 -1.13234
thorax 8.02106 0.0636517 0.758935
lowerneck -0.162884 -0.339295 -5.53849
upperneck 1.46343 -0.550266 7.61427
head 0.534533 -0.276103 3.43096
rclavicle -7.40473e-015 1.59028e-015
rhumerus -34.4871 -21.3976 -76.4712
rradius 27.7249
rwrist 29.5868
rhand 2.26709 -5.8065
rfingers 7.12502
rthumb 27.76 -33.7768
lclavicle -7.40473e-015 1.59028e-015
lhumerus -40.1693 40.04 59.3698
lradius 12.1782
lwrist -55.4356
lhand -8.51016 9.32495
lfingers 7.12502
lthumb 17.4179 38.5646
rfemur -2.9953 -2.92969 22.4291
rtibia 28.699
rfoot -21.0628 8.67271
rtoes -0.47804
lfemur -25.9094 6.12703 -24.7993
ltibia 22.1753
lfoot 3.43836 -12.4739
ltoes 5.80422
